<?xml version="1.0" encoding="UTF-8"?>
<svg id="Capa_1" data-name="Capa 1" xmlns="http://www.w3.org/2000/svg" viewBox="0 0 229.68 103.78">
  <defs>
    <style>
      .cls-1 {
        stroke: #10602c;
        stroke-width: 3px;
      }

      .cls-1, .cls-2 {
        fill: none;
      }

      .cls-1, .cls-3, .cls-4 {
        stroke-miterlimit: 10;
      }

      .cls-2 {
        stroke: #75151d;
        animation: rotate 5s linear infinite;
        transform-origin: 50% 50%;
        transform-box: fill-box;
      }

      .cls-5 {
        fill: #1d1d1b;
        stroke-width: 0px;
      }

      .cls-3 {
        fill: #123a1e;
        stroke: #123a1e;
      }

      .cls-4 {
        fill: #e52323;
        stroke: #b51918;
        animation: rotate 5s linear infinite;
        transform-origin: 50% 50%;
        transform-box: fill-box;
      }
      @keyframes rotate{
        from{
          transform: rotate(0deg);
        }
        to{
          transform: rotate(360deg);
        }
      }
    </style>
  </defs>
  <path class="cls-5" d="M12.2,74.57V2.95H0V0h42.49c5.55,0,10.11.48,13.67,1.44,3.56.96,6.64,2.96,9.22,5.98,2.58,3.03,3.87,6.5,3.87,10.43,0,4.9-1.89,8.86-5.67,11.91-3.78,3.04-10.17,5.34-19.19,6.88v.29c6.47,1.27,11.78,3.74,15.93,7.4,4.14,3.66,6.21,9.87,6.21,18.61,0,5.01.59,8.22,1.76,9.63,1.17,1.41,2.8,2.11,4.88,2.11,1.35,0,2.97-.27,4.86-.81v2.83c-3.35,1.16-6.59,1.73-9.71,1.73-6.36,0-10.85-1.77-13.47-5.32-2.62-3.54-3.89-7.01-3.82-10.41l.23-9.83c0-3.43-1.09-6.81-3.27-10.15-2.18-3.33-7.12-5-14.83-5h-7.23v36.82h12.2v2.95H0v-2.95h12.2ZM25.96,2.95v32.08h10.41c4.47,0,7.88-.3,10.23-.9,2.35-.6,4.23-2.16,5.64-4.68,1.41-2.52,2.11-6.54,2.11-12.05,0-4.51-.71-7.8-2.14-9.89-1.43-2.08-3.15-3.36-5.17-3.84-2.02-.48-4.67-.72-7.95-.72h-13.12Z"/>
  <path class="cls-5" d="M171.92,31.56v12.95h-2.37c-1.77-7.52-6.09-11.27-12.95-11.27-2.97,0-5.44.78-7.43,2.34-1.99,1.56-2.98,3.34-2.98,5.35,0,1.7.7,3.04,2.11,4.02,1.41.98,4.73,1.82,9.97,2.51,11.52,1.43,17.29,6.67,17.29,15.72,0,4.51-1.49,8.27-4.48,11.27-2.99,3.01-6.7,4.51-11.13,4.51s-8.58-1.79-12.66-5.38l-4.05,3.47h-2.02v-17.05h2.02c3.31,10.91,8.88,16.36,16.71,16.36,2.97,0,5.67-.94,8.09-2.83,2.43-1.89,3.64-4.1,3.64-6.65,0-2.12-.72-3.72-2.17-4.8-1.45-1.08-5.35-2.08-11.71-3.01-10.83-1.58-16.24-6.4-16.24-14.45,0-3.97,1.45-7.29,4.36-9.97,2.91-2.68,6.46-4.02,10.67-4.02,4.43,0,8.15,1.46,11.16,4.39.77-.81,1.56-1.97,2.37-3.47h1.79Z"/>
  <path class="cls-5" d="M226.84,51.33h-29.25c-.27,11.41.37,18.43,1.91,21.07,1.54,2.64,4.3,3.96,8.27,3.96,8.17,0,13.7-4.74,16.59-14.22h2.49c-1.27,5.74-3.68,9.98-7.23,12.72-3.55,2.74-7.5,4.1-11.85,4.1-6.21,0-11.6-2.3-16.19-6.91-4.59-4.6-6.88-10.4-6.88-17.37s2.24-12.49,6.73-17.11c4.49-4.62,9.7-6.94,15.64-6.94,5.16,0,9.68,1.83,13.56,5.49,3.87,3.66,5.94,8.73,6.21,15.2ZM197.59,48.73h16.82c.31-2.74.46-4.82.46-6.24,0-6.17-2.79-9.25-8.38-9.25-2.77,0-4.95.74-6.53,2.23-1.58,1.48-2.37,3.5-2.37,6.04v7.23Z"/>
  <g>
    <g>
      <path class="cls-4" d="M111.02,45.28l9.04,11.67s7.62,14.46-11.62,20.6-14.05-9.42-14.11-10.42,3.85-18.08,16.7-21.84Z"/>
      <path class="cls-4" d="M114.8,50.42l-1.86,14.64s-4.84,15.62-22.78,6.35c-17.94-9.27-3.27-16.6-2.61-17.35s15.51-10.06,27.25-3.64Z"/>
      <path class="cls-4" d="M113.84,56.72l-11.67,9.04s-14.46,7.62-20.6-11.62c-6.13-19.24,9.42-14.05,10.42-14.11s18.08,3.85,21.84,16.7Z"/>
      <path class="cls-4" d="M108.7,60.5l-14.64-1.86s-15.62-4.84-6.35-22.78c9.27-17.94,16.6-3.27,17.35-2.61s10.06,15.51,3.64,27.25Z"/>
      <path class="cls-4" d="M102.39,59.54l-9.04-11.67s-7.62-14.46,11.62-20.6,14.05,9.42,14.11,10.42-3.85,18.08-16.7,21.84Z"/>
      <path class="cls-4" d="M98.61,54.4l1.86-14.64s4.84-15.62,22.78-6.35,3.27,16.6,2.61,17.35-15.51,10.06-27.25,3.64Z"/>
      <path class="cls-4" d="M99.58,48.09l11.67-9.04s14.46-7.62,20.6,11.62c6.13,19.24-9.42,14.05-10.42,14.11s-18.08-3.85-21.84-16.7Z"/>
      <path class="cls-4" d="M104.72,44.31l14.64,1.86s15.62,4.84,6.35,22.78-16.6,3.27-17.35,2.61-10.06-15.51-3.64-27.25Z"/>
    </g>
    <g>
      <path class="cls-2" d="M111.02,45.28l9.04,11.67s7.62,14.46-11.62,20.6-14.05-9.42-14.11-10.42,3.85-18.08,16.7-21.84Z"/>
      <path class="cls-2" d="M114.8,50.42l-1.86,14.64s-4.84,15.62-22.78,6.35c-17.94-9.27-3.27-16.6-2.61-17.35s15.51-10.06,27.25-3.64Z"/>
      <path class="cls-2" d="M113.84,56.72l-11.67,9.04s-14.46,7.62-20.6-11.62c-6.13-19.24,9.42-14.05,10.42-14.11s18.08,3.85,21.84,16.7Z"/>
      <path class="cls-2" d="M108.7,60.5l-14.64-1.86s-15.62-4.84-6.35-22.78c9.27-17.94,16.6-3.27,17.35-2.61s10.06,15.51,3.64,27.25Z"/>
      <path class="cls-2" d="M102.39,59.54l-9.04-11.67s-7.62-14.46,11.62-20.6,14.05,9.42,14.11,10.42-3.85,18.08-16.7,21.84Z"/>
      <path class="cls-2" d="M98.61,54.4l1.86-14.64s4.84-15.62,22.78-6.35,3.27,16.6,2.61,17.35-15.51,10.06-27.25,3.64Z"/>
      <path class="cls-2" d="M99.58,48.09l11.67-9.04s14.46-7.62,20.6,11.62c6.13,19.24-9.42,14.05-10.42,14.11s-18.08-3.85-21.84-16.7Z"/>
      <path class="cls-2" d="M104.72,44.31l14.64,1.86s15.62,4.84,6.35,22.78-16.6,3.27-17.35,2.61-10.06-15.51-3.64-27.25Z"/>
    </g>
  </g>
  <g>
    <g>
      <polygon class="cls-3" points="81.15 85.57 75.78 93.94 83.42 93.94 81.15 85.57"/>
      <polygon class="cls-3" points="45.17 85.57 39.8 93.94 47.44 93.94 45.17 85.57"/>
      <polygon class="cls-3" points="15.14 85.57 9.78 93.94 17.42 93.94 15.14 85.57"/>
      <polygon class="cls-3" points="5.8 101.82 12.06 94.42 4.49 93.15 5.8 101.82"/>
      <polygon class="cls-3" points="28.15 101.82 34.41 94.42 26.84 93.15 28.15 101.82"/>
      <polygon class="cls-3" points="63.15 102.62 69.41 95.22 61.84 93.94 63.15 102.62"/>
      <polygon class="cls-3" points="101.74 101.82 107.99 94.42 100.42 93.15 101.74 101.82"/>
      <polygon class="cls-3" points="102.61 86 97.24 94.37 104.88 94.37 102.61 86"/>
      <polyline class="cls-1" points="115.44 93.94 99.3 93.94 1.19 93.94"/>
    </g>
    <g>
      <polygon class="cls-3" points="195.39 85.57 190.03 93.94 197.67 93.94 195.39 85.57"/>
      <polygon class="cls-3" points="159.41 85.57 154.04 93.94 161.68 93.94 159.41 85.57"/>
      <polygon class="cls-3" points="129.39 85.57 124.02 93.94 131.66 93.94 129.39 85.57"/>
      <polygon class="cls-3" points="120.04 101.82 126.3 94.42 118.73 93.15 120.04 101.82"/>
      <polygon class="cls-3" points="142.4 101.82 148.65 94.42 141.08 93.15 142.4 101.82"/>
      <polygon class="cls-3" points="177.4 102.62 183.65 95.22 176.08 93.94 177.4 102.62"/>
      <polygon class="cls-3" points="215.98 101.82 222.24 94.42 214.67 93.15 215.98 101.82"/>
      <polygon class="cls-3" points="216.85 86 211.48 94.37 219.13 94.37 216.85 86"/>
      <polyline class="cls-1" points="229.68 93.94 213.54 93.94 115.44 93.94"/>
    </g>
  </g>
</svg>